# xmcd
#
# Track frame offsets: 
#        183
#        22530
#        33430
#        44740
#
# Disc length: 768 seconds
#
# Revision: 0
# Processed by: cddbd v1.5.1PL0 Copyright (c) Steve Scherf et al.
# Submitted via: ExactAudioCopy v0.95a5
#
DISCID=2602fe04
DTITLE=Omar and the Howlers - Born on the bayou
DYEAR=1992
DGENRE=Blues
TTITLE0=Born on the bayou
TTITLE1=Angel child
TTITLE2=Hopeless
TTITLE3=Wild about you
EXTD=
EXTT0=
EXTT1=
EXTT2=
EXTT3=
PLAYORDER=
